<?xml version="1.0" standalone="no"?><!DOCTYPE svg PUBLIC "-//W3C//DTD SVG 1.1//EN" "http://www.w3.org/Graphics/SVG/1.1/DTD/svg11.dtd"><svg t="1559457210080" class="icon" style="" viewBox="0 0 1024 1024" version="1.1" xmlns="http://www.w3.org/2000/svg" p-id="11378" xmlns:xlink="http://www.w3.org/1999/xlink" width="16" height="16"><defs><style type="text/css"></style></defs><path d="M523.01141333 683.90115555c-60.81877333 0-117.62688-32.12856889-159.95904-90.46812444-41.13521778-56.68864-63.78951111-131.77400889-63.78951111-211.42755556s22.65429333-154.73891555 63.78951111-211.42755555c42.33329778-58.33841778 99.14140445-90.46812445 159.95904-90.46812445 60.81877333 0 117.62688 32.12856889 159.96017778 90.46812445 41.13521778 56.68864 63.78951111 131.77400889 63.78951111 211.42755555s-22.65429333 154.73891555-63.78951111 211.42755556c-42.33216 58.33955555-99.14140445 90.46812445-159.96017778 90.46812444z m0-569.65802666c-49.59459555 0-96.59164445 27.12576-132.33379555 76.38129778-36.93909333 50.90531555-57.28256 118.87388445-57.28256 191.38104888s20.34346667 140.47573333 57.28256 191.3810489c35.74215111 49.25553778 82.73806222 76.38129778 132.33379555 76.38129777s96.59278222-27.12576 132.33379556-76.38129777c36.93909333-50.90531555 57.28256-118.87388445 57.28256-191.3810489s-20.34346667-140.47573333-57.28256-191.38104888c-35.74101333-49.25553778-82.73806222-76.38129778-132.33379556-76.38129778z" fill="#1A171B" p-id="11379"></path><path d="M729.68647111 622.94471111a16.9984 16.9984 0 0 1-7.15662222-1.58264889c-18.7904-8.69717333-38.41137778-14.99249778-58.31793778-18.71189333-9.26606222-1.73169778-15.37251555-10.64618667-13.64081778-19.91224889s10.65187555-15.37137778 19.91111112-13.64081778c22.68842667 4.24163555 45.02300445 11.40280889 66.38250666 21.28782223 8.55381333 3.95832889 12.27889778 14.10275555 8.32056889 22.65656888-2.88312889 6.23274667-9.05329778 9.90321778-15.49880889 9.90321778zM799.39242667 668.58325333a16.9984 16.9984 0 0 1-11.24124445-4.23139555 289.79086222 289.79086222 0 0 0-23.05251555-18.22833778c-7.68455111-5.45792-9.48906667-16.11207111-4.03000889-23.79662222 5.45792-7.68455111 16.11434667-9.48906667 23.79662222-4.03000889a323.87185778 323.87185778 0 0 1 25.78204445 20.38328889c7.08835555 6.21226667 7.79946667 16.99498667 1.58833777 24.08334222a17.02343111 17.02343111 0 0 1-12.84323555 5.81973333zM850.84046222 725.89994667c-5.43061333 0-10.76906667-2.58503111-14.07886222-7.39896889-3.10385778-4.51470222-4.52721778-6.45916445-5.10065778-7.21692445a330.92608 330.92608 0 0 0-7.81425777-9.92711111c-5.97105778-7.29315555-4.89813333-18.04629333 2.39502222-24.01621333 7.29543111-5.97105778 18.04629333-4.89813333 24.01735111 2.39388444a364.80227555 364.80227555 0 0 1 8.62321777 10.9568c1.32778667 1.75559111 3.34848 4.60572445 6.0063289 8.47075556 5.33959111 7.76760889 3.37237333 18.39217778-4.39523556 23.73176889a16.96881778 16.96881778 0 0 1-9.65290667 3.00600889z" fill="#1A171B" p-id="11380"></path><path d="M100.97208889 943.89020445a17.06666667 17.06666667 0 0 1-17.05984-17.53998223c2.55089778-91.8528 33.35850667-178.84273778 86.74759111-244.94307555 53.52220445-66.26417778 126.00092445-107.264 204.08547555-115.44689778 9.37415111-0.97621333 17.76981333 5.81973333 18.75285334 15.19388444 0.98190222 9.37415111-5.82087111 17.76981333-15.19502222 18.75171556-138.64277333 14.52942222-247.72380445 146.21582222-259.39399112 309.69969778 2.78186667-0.04437333 5.42947555-0.09557333 8.04636445-0.14563556 6.76864-0.12970667 13.16067555-0.25372445 20.83384889-0.25372444h757.11146666c-4.47032889-54.37667555-19.67331555-106.87260445-44.35968-152.80924445-4.46122667-8.30236445-1.34826667-18.65045333 6.95409778-23.11168 8.30122667-4.46236445 18.65045333-1.34826667 23.11168 6.95409778 29.80295111 55.45642667 46.91057778 119.55655111 49.47399112 185.36903111a17.06439111 17.06439111 0 0 1-17.05415112 17.73112889H147.78823111c-7.34435555 0-13.57710222 0.11946667-20.17735111 0.24689778-7.72778667 0.15018667-15.71953778 0.30378667-26.63879111 0.30378667z" fill="#1A171B" p-id="11381"></path><path d="M512 854.80220445c-60.37959111 0-120.76032-22.98311111-166.72768-68.95047112-6.66510222-6.66396445-6.66510222-17.47057778 0-24.13568 6.66396445-6.66396445 17.47057778-6.66396445 24.13568 0 78.62499555 78.62499555 206.55786667 78.62499555 285.18286222 0 6.66510222-6.66510222 17.47057778-6.66510222 24.13568 0 6.66510222 6.66396445 6.66510222 17.47057778 0 24.13568-45.96622222 45.96736-106.34695111 68.95047111-166.72654222 68.95047112z" fill="#1A171B" p-id="11382"></path></svg>