<?xml version="1.0" standalone="no"?><!DOCTYPE svg PUBLIC "-//W3C//DTD SVG 1.1//EN" "http://www.w3.org/Graphics/SVG/1.1/DTD/svg11.dtd"><svg t="1559457123201" class="icon" style="" viewBox="0 0 1024 1024" version="1.1" xmlns="http://www.w3.org/2000/svg" p-id="8283" xmlns:xlink="http://www.w3.org/1999/xlink" width="16" height="16"><defs><style type="text/css"></style></defs><path d="M974.72 923.648a32 32 0 1 1 0 64h-832a96 96 0 0 1-96-96v-832a32 32 0 1 1 64 0v832a32 32 0 0 0 32 32h832zM232.576 839.424a32 32 0 0 1-51.776-37.568l249.408-343.68a44.8 44.8 0 0 1 62.592-9.984c3.136 2.432 3.136 2.432 5.952 5.184l125.568 130.56 312.96-415.552a32 32 0 1 1 51.072 38.464l-326.4 433.536c-2.24 2.816-2.24 2.816-4.736 5.312a44.8 44.8 0 0 1-63.36-1.216L468.544 514.304l-235.968 325.12z" p-id="8284"></path></svg>