<?xml version="1.0" standalone="no"?><!DOCTYPE svg PUBLIC "-//W3C//DTD SVG 1.1//EN" "http://www.w3.org/Graphics/SVG/1.1/DTD/svg11.dtd"><svg t="1559457448936" class="icon" style="" viewBox="0 0 1024 1024" version="1.1" xmlns="http://www.w3.org/2000/svg" p-id="14250" xmlns:xlink="http://www.w3.org/1999/xlink" width="16" height="16"><defs><style type="text/css"></style></defs><path d="M702.17088 196.24448c-83.744-17.21472-168.69504-25.94176-252.4992-25.94176-83.80288 0-168.75648 8.72704-252.50048 25.94176-10.8416 2.2336-19.69024 10.08512-23.16288 20.62592-44.60544 135.47648-44.60544 272.82432 0 408.29952 3.47264 10.53824 12.32128 18.39232 23.16288 20.6272 83.744 17.21216 168.6976 25.94048 252.50048 25.94048 83.80416 0 168.7552-8.72704 252.4992-25.94048 10.84288-2.23488 19.69024-10.08896 23.16416-20.6272 44.60544-135.4752 44.60544-272.82432 0-408.29952C721.86112 206.3296 713.01376 198.47808 702.17088 196.24448zM695.95008 615.50592c-164.16512 33.73312-328.39168 33.73312-492.5568 0-42.70208-129.67808-42.70208-259.29472 0-388.97152 164.16384-33.73312 328.39168-33.73312 492.5568 0C738.65216 356.2112 738.65216 485.82912 695.95008 615.50592z" p-id="14251"></path><path d="M970.67776 125.00224c-5.98016-25.18528-27.02848-43.97056-52.6976-47.08096C783.13728 61.55264 646.39232 53.248 511.52256 53.248c-134.87232 0-271.61728 8.30464-406.45888 24.67328-25.66912 3.1104-46.72 21.89568-52.69888 47.08096-47.29216 198.624-47.29216 400.05632 0 598.67904 5.97888 25.18656 27.02976 43.97056 52.69888 47.08224 64.96 7.88096 130.37312 13.67936 195.78496 17.7856-3.53408 2.23616-5.79712 4.5312-5.79712 6.88768 0 17.09184 96.91008 30.92352 216.47232 30.92352 119.5584 0 216.46848-13.83296 216.46848-30.92352 0-2.35648-2.26432-4.65152-5.79712-6.88768 65.41312-4.10624 130.82624-9.90336 195.78624-17.7856 25.66912-3.11296 46.71744-21.89568 52.6976-47.08224C1017.96992 525.05856 1017.96992 323.62624 970.67776 125.00224zM910.51904 709.36704c-265.99808 32.28416-531.99872 32.28416-797.99552 0-45.23904-190.01728-45.23904-380.03328 0-570.04928 265.99808-32.28416 531.99872-32.28416 797.99552 0C955.75936 329.33376 955.75936 519.34976 910.51904 709.36704z" p-id="14252"></path><path d="M836.22912 300.64512c25.60768 0 46.38464-20.77824 46.38464-46.38848 0-25.60896-20.77696-46.38592-46.38464-46.38592-25.61024 0-46.3872 20.77696-46.3872 46.38592C789.84064 279.86688 810.61888 300.64512 836.22912 300.64512zM836.22912 238.79552c8.51584 0 15.4624 6.94656 15.4624 15.4624 0 8.51712-6.94656 15.46368-15.4624 15.46368s-15.46368-6.94656-15.46368-15.46368C820.76544 245.74208 827.712 238.79552 836.22912 238.79552z" p-id="14253"></path><path d="M867.15264 609.88928l-92.77312 0c-8.54912 0-15.4624 6.91584-15.4624 15.46112 0 8.54784 6.91328 15.46496 15.4624 15.46496l92.77312 0c8.54784 0 15.46112-6.91712 15.46112-15.46496C882.61376 616.80512 875.70048 609.88928 867.15264 609.88928z" p-id="14254"></path><path d="M898.07872 517.11488l-92.77568 0c-8.54528 0-15.46112 6.91584-15.46112 15.4624s6.91584 15.4624 15.46112 15.4624l92.77568 0c8.54528 0 15.46112-6.91584 15.46112-15.4624S906.624 517.11488 898.07872 517.11488z" p-id="14255"></path><path d="M898.07872 424.34304l-92.77568 0c-8.54528 0-15.46112 6.91456-15.46112 15.4624 0 8.54656 6.91584 15.4624 15.46112 15.4624l92.77568 0c8.54528 0 15.46112-6.91584 15.46112-15.4624C913.53984 431.2576 906.624 424.34304 898.07872 424.34304z" p-id="14256"></path><path d="M434.21184 294.60352l-141.82016 11.11424c-8.4544 0.9664-16.5184 8.63744-17.93664 17.03424l-9.4528 86.15808c-0.42368 8.4864 6.16192 15.43296 14.64704 15.43296 8.4544 0 15.67232-6.94656 16.00512-15.46368l5.16608-58.58688c1.14688-8.42624 8.9984-16.0064 17.45536-16.88192l115.93728-7.9424c8.51328-0.30336 15.46112-7.49056 15.46112-16.0064C449.67296 300.9472 442.72512 294.272 434.21184 294.60352z" p-id="14257"></path></svg>