<?xml version="1.0" standalone="no"?><!DOCTYPE svg PUBLIC "-//W3C//DTD SVG 1.1//EN" "http://www.w3.org/Graphics/SVG/1.1/DTD/svg11.dtd"><svg t="1559553081349" class="icon" style="" viewBox="0 0 1024 1024" version="1.1" xmlns="http://www.w3.org/2000/svg" p-id="1995" xmlns:xlink="http://www.w3.org/1999/xlink" width="64" height="64"><defs><style type="text/css"></style></defs><path d="M746.718208 396.48870400000004C716.7846400000001 286.257152 621.356032 176.734208 495.88326400000005 176.734208c-145.792 0-250.508288 101.710848-260.558848 263.70047999999997-91.27731200000001 0-170.482688 65.768448-170.482688 167.4496 0 101.711872 81.82784 240.07577600000002 167.806976 240.07577600000002 5.025792 0 559.35488 0 559.35488 0 106.24409600000001-2.0224 167.805952-152.07424 167.805952-267.82412800000003C959.809536 463.104 902.56384 358.03340800000007 746.718208 396.48870400000004zM678.657024 578.3623680000001 519.863296 733.003776c-1.96608 1.911808-4.641792000000001 3.0863359999999997-7.53664 3.0863359999999997-2.895872 0-5.572608000000001-1.1735039999999999-7.5386880000000005-3.0863359999999997L345.99424000000005 578.3623680000001c-1.037312-1.0393599999999998-1.4745599999999999-2.7320320000000002-0.928768-4.260864 0.6000639999999999-1.5022080000000002 1.96608-2.458624 3.44064-2.458624h102.694912L450.982912 412.111872c0-2.977792 1.092608-5.953536000000001 3.223552-8.221696 2.185216-2.266112 5.023744-3.414016 7.8663680000000005-3.414016h100.56396799999999c2.7863040000000003 0 5.625856 1.147904 7.811072 3.414016 2.185216 2.26816 3.221504 5.243904000000001 3.221504 8.221696l-0.218112 159.529984h102.69388800000002c1.4745599999999999 0 2.8395520000000003 0.9574400000000001 3.44064 2.458624C680.132608 575.630336 679.69536 577.323008 678.657024 578.3623680000001z" p-id="1996"></path></svg>