<?xml version="1.0" standalone="no"?><!DOCTYPE svg PUBLIC "-//W3C//DTD SVG 1.1//EN" "http://www.w3.org/Graphics/SVG/1.1/DTD/svg11.dtd"><svg t="1559449249944" class="icon" style="" viewBox="0 0 1024 1024" version="1.1" xmlns="http://www.w3.org/2000/svg" p-id="3640" xmlns:xlink="http://www.w3.org/1999/xlink" width="32" height="32"><defs><style type="text/css"></style></defs><path d="M96 63.9v883.2c0 3.4 1.3 6.7 3.7 9.1 2.4 2.4 5.7 3.8 9.1 3.8h806.4c3.4 0 6.6-1.3 9.1-3.8 2.4-2.4 3.7-5.7 3.7-9.1V780.7c0-3.4-1.3-6.7-3.7-9.1-2.4-2.4-5.7-3.8-9.1-3.8H812.8c-3.4 0-6.7 1.3-9.1 3.8-2.4 2.4-3.8 5.7-3.8 9.1v51.2H224V192h576v51.2c0 3.4 1.3 6.7 3.8 9.1 2.4 2.4 5.7 3.7 9.1 3.7h102.4c3.4 0 6.6-1.3 9.1-3.7 2.4-2.4 3.7-5.7 3.7-9.1V63.9H96z m832 448l-256-192v128H352v128h320v128l256-192z m0 0" p-id="3641" fill="#ffffff"></path></svg>