<?xml version="1.0" standalone="no"?><!DOCTYPE svg PUBLIC "-//W3C//DTD SVG 1.1//EN" "http://www.w3.org/Graphics/SVG/1.1/DTD/svg11.dtd"><svg t="1559632071379" class="icon" style="" viewBox="0 0 1024 1024" version="1.1" xmlns="http://www.w3.org/2000/svg" p-id="1651" xmlns:xlink="http://www.w3.org/1999/xlink" width="48" height="48"><defs><style type="text/css"></style></defs><path d="M838.144 555.985455c0-3.653818 0.930909-7.307636 0.930909-10.938182 0-54.830545-45.684364-99.607273-101.422545-99.607273-56.645818 0.930909-102.306909 44.776727-102.306909 99.607273 0 54.807273 45.661091 99.560727 101.399272 99.560727 42.938182 0 79.476364-25.576727 94.091637-62.138182l-43.845819-7.284363c-10.053818 17.361455-28.322909 30.138182-49.338181 30.138181-27.392 0-51.153455-20.992-55.714909-48.407272h156.206545v-0.930909z m-100.491636-68.51491c23.738182 0 43.869091 15.546182 52.084363 37.469091h-104.145454c8.215273-22.853818 28.322909-37.469091 52.061091-37.469091z m-181.806546 153.483637h52.084364v-190.929455h-52.084364v190.929455zM581.445818 372.363636a28.858182 28.858182 0 0 0-29.253818 29.230546c0 15.546182 12.8 29.230545 29.230545 29.230545 15.546182 0 29.253818-12.8 29.253819-29.230545A28.858182 28.858182 0 0 0 581.422545 372.363636z m-343.505454 16.453819v103.237818h-111.476364v-103.237818H69.818182V640.930909h56.645818v-103.237818h111.476364v103.237818h56.622545V388.817455h-56.645818z m234.775272 61.207272v10.053818a101.469091 101.469091 0 0 0-52.084363-14.615272 99.816727 99.816727 0 0 0-99.584 99.560727 99.816727 99.816727 0 0 0 99.607272 99.607273c18.245818 0 35.607273-4.584727 50.222546-13.730909v10.053818h50.269091v-190.929455h-48.430546z m-49.338181 152.576c-31.976727 0-58.461091-25.6-58.461091-57.576727 0-31.953455 25.576727-57.553455 58.461091-57.553455 31.976727 0 58.484364 25.6 58.484363 57.553455-0.930909 31.976727-26.507636 57.576727-58.484363 57.576727z m522.58909-169.937454c-47.522909 8.215273-84.061091 50.245818-84.968727 100.491636v108.730182h49.338182v-110.545455c0-25.6 19.176727-46.592 43.845818-49.338181l-8.215273-49.338182z" fill="#333C4F" p-id="1652"></path></svg>