<?xml version="1.0" standalone="no"?><!DOCTYPE svg PUBLIC "-//W3C//DTD SVG 1.1//EN" "http://www.w3.org/Graphics/SVG/1.1/DTD/svg11.dtd"><svg t="1559449190133" class="icon" style="" viewBox="0 0 1024 1024" version="1.1" xmlns="http://www.w3.org/2000/svg" p-id="2051" xmlns:xlink="http://www.w3.org/1999/xlink" width="32" height="32"><defs><style type="text/css"></style></defs><path d="M14.258205 512.565585c-0.00973 177.828305 94.857656 342.157992 248.863295 431.072753 154.006856 88.91841 343.751359 88.91841 497.757 0 154.00564-88.914761 248.873026-253.244448 248.863295-431.072753 0.00973-177.833171-94.857656-342.159208-248.863295-431.077619-154.00564-88.919626-343.750143-88.919626-497.757 0C109.115861 170.406376 14.248474 334.732414 14.258205 512.565585z m0 0" fill="#DBDBDB" p-id="2052"></path><path d="M742.999945 838.769226c-23.276542-9.070031-50.648403-16.751034-81.012388-22.701227-16.995512-3.335125-34.916638-6.133856-53.632014-8.300105-27.386457 7.359897-60.578365 11.674152-96.353719 11.674152-35.815491 0-69.04024-4.323985-96.444941-11.702127-20.164002 2.332884-39.402392 5.397988-57.557049 9.07003 1.611612 0.555854 3.259713 1.016836 4.8993 1.510658-1.639587-0.493822-3.287688-0.954804-4.8993-1.510658-28.648987 5.801803-54.557626 13.147105-76.765031 21.761019-0.43179-1.254017-53.888655 28.531005-84.609021 59.163795 85.839927 70.335612 195.592526 112.574441 315.224004 112.574441 119.772569 0 229.644367-42.328836 315.531729-112.812837-30.703337-30.452776-83.930319-60.028593-84.38157-58.727141z m0 0" fill="#8DBA27" p-id="2053"></path><path d="M730.394099 446.518685c-6.3236-2.385186-13.341714-1.240637-20.26374 2.602906 0.613021-40.993327-5.458803-78.09081-17.556232-107.534049H331.11693c-12.57179 30.607248-18.67767 69.468382-17.48447 112.404158-6.946352-3.876383-13.987576-5.035527-20.330637-2.636962-17.983157 6.789448-23.538049 39.10318-12.41002 72.167375 11.126812 33.054466 34.722028 54.349637 52.700319 47.568704 16.183017 52.50571 40.205157 97.756125 67.789873 131.59876a266.563052 266.563052 0 0 0 14.842642 16.761981v88.210517c-0.22745 0.024326-0.446386 0.052301-0.673836 0.080276 27.409567 7.374493 60.634316 11.702127 96.449807 11.702127 35.776569 0 68.963613-4.31912 96.353719-11.679017-0.294347-0.03284-0.588694-0.071762-0.884258-0.104603v-88.172811a266.617786 266.617786 0 0 0 14.937514-16.866583c27.528765-33.780603 51.50347-78.927632 67.671891-131.294683 0.480443-1.553229 42.799549 0 52.71978-52.643152 11.132894-33.06298 5.579218-65.37063-12.405155-72.164944z m0 0" fill="#EED5A1" p-id="2054"></path><path d="M692.580209 343.294027s-2.185711 45.996014 17.551366 112.16576c0 0 86.210902-250.516262-75.819957-250.516262 0 0-419.617537-145.90136-320.677941 255.595576 0 0 2.77927 11.183979 7.696815 20.306311 66.472608-98.320493 286.667455-66.468959 371.249717-137.551385z m0 0" fill="#5C4948" p-id="2055"></path><path d="M326.232225 922.903885h89.974168v15.388766h-89.974168zM511.529896 819.433532s20.610389 34.706216 71.857216 44.864844c0 0 26.379351-35.063811 24.497719-56.543862l-96.354935 11.679018z m0 0M511.48246 819.445695s-20.610389 34.707432-71.852352 44.866061c0 0-26.384216-35.063811-24.502583-56.543862l96.354935 11.677801z m0 0" fill="#B9C9C2" p-id="2056"></path><path d="M502.469596 845.102557a9.068814 9.068814 0 0 0 4.527109 7.85372 9.063949 9.063949 0 0 0 13.599572-7.85372 9.063949 9.063949 0 1 0-13.599572-7.848854 9.067598 9.067598 0 0 0-4.527109 7.848854z m0 0M502.42216 879.881752a9.061516 9.061516 0 1 0 18.125465 0 9.063949 9.063949 0 1 0-18.125465 0z m0 0M502.42216 915.273967a9.054218 9.054218 0 0 0 4.531974 7.848854 9.062733 9.062733 0 0 0 4.528326-16.914019c-5.002687-0.001216-9.0603 4.061262-9.0603 9.065165z m0 0" fill="#56A57E" p-id="2057"></path></svg>